Coordinates
version=1
nRows=19
nColumns=24
inDegrees=yes

Units are S.I. units (second, meters, Newtons, ...)
Angles are in degrees.

endheader
time	pelvis_tilt	pelvis_list	pelvis_rotation	pelvis_tx	pelvis_ty	pelvis_tz	hip_flexion_r	hip_adduction_r	hip_rotation_r	knee_angle_r	ankle_angle_r	subtalar_angle_r	mtp_angle_r	hip_flexion_l	hip_adduction_l	hip_rotation_l	knee_angle_l	ankle_angle_l	subtalar_angle_l	mtp_angle_l	lumbar_extension	lumbar_bending	lumbar_rotation
      1.17383333	      0.02339119	      7.30080016	      0.93941983	      0.11418705	      0.99351279	      0.27342913	     21.62106174	     -7.06294047	     -0.65930760	    -72.21136956	      1.65284023	    -12.66013285	      0.92213810	      9.15603232	     11.70581099	      0.28477048	    -13.44341497	      5.29585488	     -6.32754032	      0.53037154	      0.04106996	     -5.58946752	      2.47760298
      1.17800000	      0.03229966	      7.19552780	      0.88999790	      0.11920837	      0.99428970	      0.27342226	     22.20119371	     -6.86514537	     -0.48059551	    -72.02337720	      2.27643208	    -12.84281278	      0.83276330	      8.60131077	     11.59092920	      0.33783742	    -13.02584107	      5.34647773	     -6.30261067	      0.51787207	      0.01519093	     -5.45827471	      2.43660080
      1.18216667	      0.11429009	      7.12264474	      0.84347474	      0.12426859	      0.99515136	      0.27339744	     22.67484162	     -6.71548009	     -0.32207432	    -71.76154349	      2.84311706	    -13.13654269	      0.59327237	      7.92107144	     11.52270758	      0.50159324	    -12.52003545	      5.37056613	     -6.39518570	      0.47958801	     -0.09479267	     -5.38745196	      2.41354212
      1.18633333	      0.14851216	      7.01669217	      0.80042417	      0.12930073	      0.99593158	      0.27339260	     23.18005757	     -6.52288915	     -0.16860973	    -71.42406672	      3.45285951	    -13.34291893	      0.40315684	      7.32191737	     11.41239352	      0.61810839	    -12.06746887	      5.40388011	     -6.44129469	      0.44472993	     -0.14821787	     -5.26796496	      2.38258574
      1.19050000	      0.15455458	      6.89310973	      0.75984701	      0.13433543	      0.99663561	      0.27338347	     23.69410265	     -6.31610517	     -0.02991857	    -71.01202819	      4.02985966	    -13.49371705	      0.32420363	      6.77222184	     11.27870802	      0.68536302	    -11.64996386	      5.43684650	     -6.44896798	      0.42757160	     -0.15937138	     -5.10851403	      2.34825656
      1.19466667	      0.20892254	      6.77659689	      0.72208198	      0.13937486	      0.99739077	      0.27338276	     24.12717864	     -6.11570768	      0.10509472	    -70.52704616	      4.62879846	    -13.68713836	      0.23447243	      6.15306349	     11.15552618	      0.80942289	    -11.19915884	      5.46935847	     -6.48605506	      0.40654478	     -0.24130615	     -4.96469412	      2.31667630
      1.19883333	      0.29618060	      6.68904309	      0.67918842	      0.14443030	      0.99814223	      0.27335226	     24.50759966	     -5.96389204	      0.22497617	    -69.98194574	      5.14827375	    -13.90216490	      0.01669239	      5.46506510	     11.07477573	      1.02351875	    -10.68034921	      5.46351696	     -6.67406431	      0.35380574	     -0.36171295	     -4.86961527	      2.28513888
      1.20300000	      0.32410547	      6.55549668	      0.64855458	      0.14946863	      0.99880202	      0.27333308	     24.92083885	     -5.75571967	      0.33168168	    -69.34740410	      5.65545068	    -14.01746301	     -0.49372336	      4.86024822	     10.94199931	      1.22803069	    -10.19271481	      5.38445635	     -6.90905963	      0.22554293	     -0.40354556	     -4.70247795	      2.24377354
      1.20716667	      0.36098663	      6.45281541	      0.62056285	      0.15448325	      0.99937386	      0.27333316	     25.31686835	     -5.58583602	      0.43582548	    -68.68520295	      6.24086306	    -14.17780809	     -0.66346197	      4.28829215	     10.82980049	      1.32530942	     -9.79396496	      5.49114850	     -6.88820777	      0.18338162	     -0.46574210	     -4.58542078	      2.21033302
      1.21133333	      0.39306925	      6.32463417	      0.59787944	      0.15950778	      0.99994217	      0.27333996	     25.68158765	     -5.38695725	      0.52782462	    -67.93002874	      6.75128874	    -14.33986405	     -0.84515172	      3.70918642	     10.69295305	      1.46921408	     -9.36683842	      5.51669535	     -6.97574974	      0.13443979	     -0.51769900	     -4.44068528	      2.17100249
      1.21550000	      0.43249990	      6.19927573	      0.57795329	      0.16453429	      1.00046173	      0.27333671	     26.01680291	     -5.20033479	      0.60495796	    -67.11447008	      7.23133625	    -14.49023825	     -1.02272885	      3.12470947	     10.55918561	      1.61830938	     -8.94576755	      5.54298257	     -7.07147164	      0.08574933	     -0.58210944	     -4.29042995	      2.12795251
      1.21966667	      0.45922218	      6.08174277	      0.56355588	      0.16954928	      1.00091515	      0.27333275	     26.34521919	     -5.02573233	      0.67448495	    -66.24160541	      7.68886993	    -14.64967679	     -1.19688376	      2.55974319	     10.43419707	      1.77147785	     -8.53324293	      5.56630046	     -7.17981025	      0.03721930	     -0.63137220	     -4.15243824	      2.08254421
      1.22383333	      0.44524004	      5.95249887	      0.56035433	      0.17454241	      1.00127304	      0.27334449	     26.69160624	     -4.83703723	      0.73680057	    -65.29993692	      8.13313810	    -14.77742352	     -1.28447584	      2.06985492	     10.29079168	      1.87810613	     -8.17998953	      5.59854416	     -7.22674205	      0.01176565	     -0.62627378	     -4.00198471	      2.04775594
      1.22800000	      0.50286255	      5.85402417	      0.54627166	      0.17956447	      1.00166940	      0.27334469	     26.94167474	     -4.69327701	      0.78936754	    -64.31066165	      8.50386836	    -15.00140153	     -1.45545448	      1.45582332	     10.18616168	      2.06394201	     -7.73447728	      5.61976346	     -7.38071475	     -0.03686491	     -0.72298434	     -3.88799048	      1.98564809
      1.23216667	      0.46903529	      5.73228174	      0.55526767	      0.18454452	      1.00188527	      0.27334261	     27.26593948	     -4.52363330	      0.83185841	    -63.25705059	      8.88811082	    -15.13269951	     -1.53828072	      1.00171095	     10.05102499	      2.17633498	     -7.40909684	      5.65755179	     -7.42995106	     -0.06088818	     -0.70082868	     -3.74145732	      1.94961594
      1.23633333	      0.53165088	      5.64134831	      0.54623079	      0.18956247	      1.00218393	      0.27334493	     27.46436548	     -4.39530113	      0.86802224	    -62.15334054	      9.17534521	    -15.39473201	     -1.71732029	      0.38939923	      9.95316217	      2.36781892	     -6.97833882	      5.68082329	     -7.58793698	     -0.11179562	     -0.80569918	     -3.63766495	      1.87798812
      1.24050000	      0.49210370	      5.53056781	      0.56455131	      0.19454068	      1.00229395	      0.27334347	     27.74687154	     -4.24778773	      0.89006751	    -60.98566411	      9.49517230	    -15.54203584	     -1.80554417	     -0.05033881	      9.82779148	      2.48050138	     -6.66941656	      5.72423989	     -7.64001704	     -0.13691437	     -0.77874861	     -3.50318841	      1.83948638
      1.24466667	      0.49215583	      5.47157177	      0.56867047	      0.19954564	      1.00239777	      0.27331391	     27.97662311	     -4.16518333	      0.91532191	    -59.78826713	      9.69911801	    -15.80906241	     -2.31835645	     -0.60531489	      9.77070985	      2.75871889	     -6.21327208	      5.63904495	     -7.98666659	     -0.28744315	     -0.79885141	     -3.43366616	      1.74565090
      1.24883333	      0.51995288	      5.37586864	      0.57674963	      0.20453195	      1.00248653	      0.27333854	     28.14194717	     -4.03922061	      0.92190798	    -58.51908800	      9.91942886	    -16.02929164	     -2.46223126	     -1.11836276	      9.65616301	      2.84047656	     -5.90699545	      5.77674347	     -7.95194039	     -0.32492795	     -0.87415577	     -3.32759362	      1.70257673
